PathFileType	4	(X/Y/Z)	C:\Users\Basilio\Documents\Thesis Gigler\squatting_fais\c3dfiles\047\SJ_pre3\markers_experimental.trc
DataRate	CameraRate	NumFrames	NumMarkers	Units	OrigDataRate	OrigDataStartFrame	OrigNumFrames
200.000000	200.000000	4	60	mm	200.000000	1499	1714
Frame#	Time	FHD			LBHD			RBHD			C7			T10			CLAV			LSHO			LUUPA			LMUPA			LDUPA			LLEP			LMEP			LRAD			LUL			LRFIN			RSHO			RUPA1			RMUPA			RDUPA			RLEP			RMEP			RRAD			RUL			RUFIN			LASI			RASI			USACR			LSACR			RSACR			LTHI1			LTHI2			LTHI3			LTHI4			LLFC			LMFC			LTIB1			LTIB2			LTIB3			LTIB4			LLMAL			LMMAL			LMT1			LMT2			LMT5			RTHI			RTHI2			RTHI3			RTHI4			RLFC			RMFC			RTIB1			RTIB2			RTIB3			RTIB4			RLMAL			RMMAL			RHEE			RMT1			RMT2			RMT5			
		X1	Y1	Z1	X2	Y2	Z2	X3	Y3	Z3	X4	Y4	Z4	X5	Y5	Z5	X6	Y6	Z6	X7	Y7	Z7	X8	Y8	Z8	X9	Y9	Z9	X10	Y10	Z10	X11	Y11	Z11	X12	Y12	Z12	X13	Y13	Z13	X14	Y14	Z14	X15	Y15	Z15	X16	Y16	Z16	X17	Y17	Z17	X18	Y18	Z18	X19	Y19	Z19	X20	Y20	Z20	X21	Y21	Z21	X22	Y22	Z22	X23	Y23	Z23	X24	Y24	Z24	X25	Y25	Z25	X26	Y26	Z26	X27	Y27	Z27	X28	Y28	Z28	X29	Y29	Z29	X30	Y30	Z30	X31	Y31	Z31	X32	Y32	Z32	X33	Y33	Z33	X34	Y34	Z34	X35	Y35	Z35	X36	Y36	Z36	X37	Y37	Z37	X38	Y38	Z38	X39	Y39	Z39	X40	Y40	Z40	X41	Y41	Z41	X42	Y42	Z42	X43	Y43	Z43	X44	Y44	Z44	X45	Y45	Z45	X46	Y46	Z46	X47	Y47	Z47	X48	Y48	Z48	X49	Y49	Z49	X50	Y50	Z50	X51	Y51	Z51	X52	Y52	Z52	X53	Y53	Z53	X54	Y54	Z54	X55	Y55	Z55	X56	Y56	Z56	X57	Y57	Z57	X58	Y58	Z58	X59	Y59	Z59	X60	Y60	Z60	

1500	7.495	-47.6455307006836	1683.66748046875	-915.6484375000002	-225.9503936767579	1669.96484375	-953.5156250000002	-212.8321380615235	1671.208618164063	-805.518737792969	-276.8291931152344	1498.855712890625	-886.467956542969	-341.7911071777344	1183.684204101563	-881.2930908203127	-126.7689361572266	1427.846313476563	-890.0039672851565	-187.1320953369141	1464.483764648438	-1063.919189453125	-302.9974670410157	1367.3349609375	-1186.744262695313	-267.5401306152344	1337.911254882813	-1209.70166015625	-320.0315551757813	1316.162231445313	-1231.6328125	-317.4178466796876	1251.845458984375	-1269.866577148438	-377.7729492187501	1226.490966796875	-1195.7373046875	-237.9728088378907	1078.247802734375	-1098.421142578125	-194.7260742187501	1050.287231445313	-1157.27978515625	-179.4789581298828	1073.3837890625	-1059.127197265625	-194.5723419189454	1480.145629882813	-722.0910644531251	-322.0289001464844	1376.921997070313	-593.6564941406251	-290.8746643066407	1345.069580078125	-571.9593505859376	-343.7339477539063	1323.616943359375	-552.4207763671876	-342.0943908691407	1256.56640625	-519.0954589843751	-397.5660400390626	1228.53515625	-589.2083740234376	-209.4547119140626	1113.968505859375	-681.9951782226564	-190.3480072021485	1074.437622070313	-621.0601196289064	-159.5438079833985	1079.116333007813	-720.5515136718751	-182.4400939941407	956.4122314453127	-1001.032531738281	-178.489990234375	950.9161376953127	-770.5847778320315	-357.6632995605469	1041.70947265625	-886.9703369140627	-366.0826721191407	1011.638122558594	-915.8916015625002	-362.7943725585938	1009.383911132813	-858.5103149414065	-291.6896972656251	814.5772094726565	-1086.34423828125	-261.3901062011719	737.9417114257814	-1103.006103515625	-211.4666137695313	738.0948486328126	-1096.866088867188	-291.4252624511719	684.7385253906251	-1103.175659179688	-315.8489379882813	510.5401916503907	-1095.150024414063	-260.7788391113282	479.230438232422	-988.9241333007815	-271.7143859863282	311.7517089843751	-1053.0986328125	-301.9479370117188	281.0517578125001	-1130.355102539063	-273.4971008300782	271.2460937500001	-1094.750610351563	-283.3571472167969	189.6786346435547	-1079.281127929688	-343.8896179199219	98.23652648925784	-1134.8994140625	-306.0756530761719	99.22222137451175	-1051.82666015625	-182.9732666015625	63.503963470459	-1108.205078125	-192.9776000976563	63.39349365234376	-1150.773803710938	-242.0585327148438	44.72166442871094	-1188.704345703125	-309.7057189941407	786.1299438476565	-684.3270263671876	-277.8284912109376	729.6678466796876	-668.6427612304689	-244.8989715576172	729.5152587890626	-669.4392089843751	-308.5162963867188	651.3983764648439	-674.8469238281251	-310.7226867675782	500.6915893554689	-677.9664916992189	-256.0616455078126	481.4209289550782	-785.2850341796877	-278.9273376464844	371.7214355468751	-671.3416748046876	-351.2166442871094	294.8912963867188	-643.8088989257814	-304.4509582519532	293.3654479980469	-645.8815307617189	-287.9996337890626	241.7895965576172	-671.2416992187501	-358.5407714843751	92.59446716308595	-647.0029907226564	-308.2937927246094	102.1783447265625	-726.2371826171876	-398.5993041992189	52.18727111816408	-708.0794067382814	-190.206283569336	56.19052886962892	-667.0039062500001	-200.7662200927735	59.01408004760744	-622.2032470703126	-260.0277099609376	30.61876869201661	-579.0215454101564	
1501	7.5	-49.929988861084	1683.552001953125	-915.3808593750002	-227.5640716552735	1669.361206054688	-953.317810058594	-214.6472167968751	1670.212036132813	-805.2347412109377	-278.2378234863282	1498.437377929688	-886.2947387695315	-342.7112121582032	1182.370727539063	-881.3249511718752	-127.7204284667969	1427.138793945313	-890.0850830078127	-188.4131927490235	1463.7822265625	-1063.779296875	-303.3597412109376	1366.113159179688	-1187.1748046875	-267.6776123046876	1336.765625	-1209.904907226563	-320.0663452148438	1314.869506835938	-1232.0068359375	-316.8540954589844	1251.253784179688	-1270.956420898438	-377.6317749023438	1225.0302734375	-1196.158813476563	-237.6092224121094	1077.121215820313	-1098.537841796875	-193.740951538086	1049.471923828125	-1157.43798828125	-179.2732543945313	1072.436889648438	-1058.955688476563	-195.9515686035157	1479.541015625	-722.1871337890626	-322.4446716308594	1375.718505859375	-593.0020141601564	-291.1662597656251	1343.719360351563	-571.5067749023439	-343.7136840820313	1322.495239257813	-551.8651123046876	-341.6152954101563	1255.237182617188	-518.5623168945314	-397.3394470214845	1226.94287109375	-588.3151245117189	-209.0896606445313	1113.136352539063	-681.9895019531251	-189.6730346679688	1073.904052734375	-621.0821533203126	-159.1745910644532	1078.380615234375	-720.6423339843751	-181.4559783935547	956.6125488281252	-1001.211791992188	-177.1231536865235	950.7446289062502	-770.5421142578127	-357.2918701171876	1040.041870117188	-887.0078125000002	-365.3768615722657	1009.848693847656	-915.8635864257815	-361.8995666503907	1007.618347167969	-858.4881591796877	-290.7450256347657	814.7109375000002	-1086.008178710938	-260.8614196777344	738.0479736328126	-1102.823364257813	-210.8376922607422	738.3330688476564	-1097.222900390625	-291.0075988769532	684.9769287109376	-1102.813598632813	-316.1014099121094	510.6271972656251	-1094.709228515625	-260.6831970214844	479.1784667968751	-988.8546142578127	-271.9872436523438	311.7184448242188	-1052.880004882813	-301.5147094726563	280.7745361328126	-1130.281616210938	-273.7207031250001	271.2446289062501	-1094.5966796875	-283.3714904785157	189.7060089111328	-1079.269409179688	-343.9436340332032	98.22675323486331	-1134.887573242188	-306.1227111816407	99.16128540039065	-1051.86572265625	-183.0859832763672	63.2901077270508	-1108.089721679688	-193.0280914306641	63.31614685058595	-1150.889038085938	-242.1318054199219	44.66440963745118	-1188.798217773438	-308.7153930664063	786.392028808594	-684.8280639648439	-277.3255615234376	729.6820068359376	-668.8051147460939	-244.3182067871094	729.6198730468751	-669.4561157226564	-307.9052429199219	651.6610717773439	-675.5418701171876	-311.2298889160157	500.8636779785157	-678.7060546875001	-256.2041015625001	481.334442138672	-785.3916015625002	-279.3782348632813	371.9264831542969	-672.1662597656251	-351.5998535156251	295.1230468750001	-644.5237426757814	-304.8740234375001	293.5882568359376	-646.2966308593751	-288.4173278808594	242.0171966552735	-671.5078735351564	-358.6330261230469	92.58970642089845	-646.9642333984376	-308.3671875000001	102.1433868408203	-726.1397705078126	-398.5667114257814	52.17462539672853	-708.1077880859376	-190.0524291992188	55.91661834716798	-666.5639038085939	-200.8023071289063	58.92369461059572	-622.1914672851564	-260.0612792968751	30.58406639099122	-578.9904785156251	
1502	7.505	-51.66791152954103	1683.537719726563	-915.260192871094	-229.5247192382813	1668.680541992188	-953.0936279296877	-216.0692901611329	1669.684204101563	-804.8074340820315	-279.3127136230469	1497.750732421875	-886.3825683593752	-343.5168151855469	1181.5068359375	-881.4812622070315	-128.618637084961	1426.732055664063	-890.0710449218752	-189.0166320800782	1463.096923828125	-1063.991821289063	-303.7872924804688	1364.698364257813	-1187.654663085938	-267.6940917968751	1335.440551757813	-1210.131469726563	-319.9770812988282	1313.510864257813	-1232.446411132813	-316.6234741210938	1249.118408203125	-1270.496704101563	-377.5263671875001	1223.714111328125	-1196.643310546875	-237.0421447753907	1076.281494140625	-1098.427001953125	-193.2424774169922	1048.215942382813	-1156.98876953125	-178.6904602050782	1071.668701171875	-1058.863037109375	-197.0320434570313	1478.6875	-721.8689575195314	-322.8258361816407	1374.40185546875	-592.6597290039064	-291.5162353515626	1342.534790039063	-571.1322631835939	-343.6525573730469	1321.09619140625	-551.4420776367189	-341.5362854003907	1253.909423828125	-517.9622802734376	-397.4813537597657	1225.312255859375	-587.4523315429689	-209.1468505859376	1112.210571289063	-681.7977905273439	-188.9880676269532	1072.997192382813	-621.0030517578126	-159.0982208251953	1077.87890625	-720.5592651367189	-179.8411712646485	956.7978515625002	-1001.814086914063	-175.867660522461	950.8642578125002	-770.5679321289065	-356.8044128417969	1038.658569335938	-886.935485839844	-364.7761840820313	1008.586853027344	-915.6612548828127	-361.0322265625001	1006.269714355469	-858.4769287109377	-289.9865722656251	814.9009399414065	-1085.825439453125	-260.4521484375001	738.2578735351564	-1102.680908203125	-210.1273803710938	738.2335815429689	-1097.426025390625	-290.5961914062501	685.2058715820314	-1102.451538085938	-316.3651123046876	510.7296447753907	-1094.185180664063	-260.6661376953126	479.0039978027345	-988.8443603515627	-272.2665710449219	311.6950683593751	-1052.661865234375	-301.3535156250001	281.4463195800782	-1130.52294921875	-273.5952758789063	271.4212341308594	-1094.56396484375	-283.4954223632813	189.6762847900391	-1079.222778320313	-344.0461425781251	98.21746826171878	-1134.814208984375	-306.1292114257813	99.1516036987305	-1051.854370117188	-183.1326751708985	63.27265930175783	-1108.191284179688	-193.0799713134766	63.3185501098633	-1150.960083007813	-242.1470947265626	44.60542678833009	-1188.842895507813	-307.7891540527344	786.7498168945315	-685.2371826171876	-276.7348937988282	729.8923339843751	-669.3539428710939	-243.5584716796876	729.7869873046876	-669.7500610351564	-307.6859436035157	651.9022827148439	-676.3309936523439	-311.6468505859376	500.9637451171876	-679.4002075195314	-256.2289733886719	481.3225097656251	-785.3964843750002	-279.7953491210938	372.1740722656251	-672.6951293945314	-352.0739746093751	295.0686950683594	-645.2631835937501	-305.4961242675782	293.7076110839844	-646.5711669921876	-288.7174072265626	242.1696777343751	-671.4505615234376	-358.6163940429688	92.61638641357423	-647.0601806640626	-308.5114746093751	102.0615844726563	-726.1564331054689	-398.5133666992189	52.20321273803712	-708.1288452148439	-190.3510437011719	56.02683639526369	-666.5253906250001	-200.8205261230469	58.9014129638672	-622.1263427734376	-260.0552978515626	30.56349563598634	-579.0440063476564	
1503	7.51	-52.75504302978517	1683.687133789063	-915.2210083007815	-231.0111541748047	1667.739624023438	-952.7791748046877	-217.5081024169922	1669.112915039063	-804.7064208984377	-280.5456542968751	1497.053466796875	-886.3066406250002	-344.6083984375001	1180.507202148438	-881.545104980469	-129.7242431640625	1426.041748046875	-889.8425903320315	-189.9356384277344	1462.486206054688	-1064.162475585938	-304.1496582031251	1363.37890625	-1187.913818359375	-268.0549316406251	1334.188354492188	-1210.218505859375	-319.9807739257813	1311.895874023438	-1232.86181640625	-316.4174499511719	1247.82421875	-1270.704956054688	-377.1781311035157	1221.801147460938	-1197.3056640625	-236.7075653076172	1075.036743164063	-1098.369873046875	-192.7301940917969	1047.194580078125	-1157.040161132813	-178.5620880126953	1070.703491210938	-1058.777709960938	-198.3314971923829	1477.72900390625	-722.0072631835939	-323.2611083984376	1373.092895507813	-592.2213134765626	-291.9544067382813	1341.336181640625	-570.6597900390626	-343.8331604003907	1319.762573242188	-550.7365722656251	-341.4924011230469	1252.63720703125	-516.9118041992189	-397.4797668457032	1223.9423828125	-586.7567138671876	-208.9303741455079	1111.268310546875	-681.5681762695314	-188.5972900390625	1072.233032226563	-620.9086914062501	-159.150131225586	1077.211791992188	-720.2721557617189	-178.9870300292969	956.6818847656252	-1002.041442871094	-174.5278778076172	950.616882324219	-770.5249023437502	-356.3683776855469	1037.120849609375	-886.838317871094	-363.9890441894532	1007.064758300781	-915.5369262695315	-360.3743286132813	1004.840759277344	-858.3474121093752	-289.1798400878907	815.103942871094	-1085.618896484375	-259.5798950195313	738.1982421875001	-1102.547607421875	-209.4456176757813	738.1611938476564	-1097.546508789063	-290.2240295410157	685.4263916015626	-1102.19189453125	-316.6870422363282	510.8664550781251	-1093.762817382813	-260.5206604003907	478.9654846191407	-988.8479003906252	-272.5030212402344	311.6405334472657	-1052.538330078125	-301.2082519531251	281.2402954101563	-1130.386962890625	-274.2136840820313	271.3641967773438	-1094.208129882813	-283.4641723632813	189.7322845458985	-1079.2392578125	-343.9923706054688	98.1923751831055	-1134.819946289063	-306.1923217773438	98.85969543457034	-1051.701171875	-183.1193084716797	63.30074310302736	-1108.362915039063	-193.0325927734376	63.36176681518556	-1151.074584960938	-242.2154846191407	44.55731582641602	-1188.956787109375	-307.3241577148438	786.9671630859377	-685.3229370117189	-275.7976684570313	729.9690551757814	-669.7228393554689	-243.2008056640626	729.9760742187501	-669.5268554687501	-307.3574218750001	652.1976318359376	-676.6174316406251	-312.0317687988282	501.0665283203126	-680.1515502929689	-256.1370544433594	481.3094482421876	-785.4663696289065	-280.3314819335938	372.3698730468751	-673.0689697265626	-352.5362548828126	295.3382568359376	-645.8465576171876	-305.9385375976563	293.8015747070313	-646.9865112304689	-288.8547363281251	242.3371276855469	-671.9432983398439	-358.6656188964844	92.61788940429689	-647.1071166992189	-308.2400817871094	102.0858535766602	-726.2299194335939	-398.5301513671876	52.16667938232423	-708.1256713867189	-190.0100402832032	56.10630035400392	-666.3576049804689	-200.8961334228516	58.85983276367189	-621.9827270507814	-260.0613098144532	30.52965927124024	-579.0783691406251	
